# xmcd CD database file
#
# Track frame offsets:
#	150
#	8580
#	19455
#	29395
#	42312
#	54842
#	68627
#	80717
#	91845
#	103880
#	116370
#	128662
#	141847
#	157485
#	167237
#	179720
#	190885
#	203760
#	216007
#	228322
#	237952
#	250937
#	263632
#	274212
#	284682
#	297275
#	310262
#
# Disc length: 4305 seconds
#
# Revision: 3
# Processed by: cddbd v1.5.2PL0 Copyright (c) Steve Scherf et al.
# Submitted via: CDex 1.51
#
DISCID=9110cf1b
DTITLE=Various Artist - Stoned Alchemy
DYEAR=1900
DGENRE=Rock
TTITLE0=Chuck Berry - Come On
TTITLE1=Howlin' Wolf - The Red Rooster
TTITLE2=Benny Spellman - Fortune Teller
TTITLE3=Muddy Waters - I Just Want To Make Love To You
TTITLE4=Bo Diddley - Road Runner
TTITLE5=Alvin Robinson - Down Home Girl
TTITLE6=Jimmy Reed - Bright Light, Big City
TTITLE7=Chuck Berry - Down The Road Apiece
TTITLE8=Chuck Berry - Around And Around
TTITLE9=Irma Thomas - Ruler Of My Heart
TTITLE10=Muddy Waters - I Can't Be Satisfied
TTITLE11=Buster Brown - Fannie Mae
TTITLE12=Bo Diddley - Cops And Robbers
TTITLE13=Howlin' Wolf - Down In The Bottom
TTITLE14=Chuck Berry - You Can't Catch Me
TTITLE15=Bo Diddley - Diddley Daddy
TTITLE16=Muddy Waters - I'm Your Hoochie Coochie Man
TTITLE17=Jimmy Reed - Honest I Do
TTITLE18=Howlin' Wolf - How Many More Years
TTITLE19=Gene Allison - You Can Make It If You Try
TTITLE20=Chuck Berry - Route 66
TTITLE21=Chuck Berry - Carol
TTITLE22=Bo Diddley - I Need You Baby (Mona)
TTITLE23=Dale Hawkins - Susie Q
TTITLE24=Bo Diddley - Pretty Thing
TTITLE25=Muddy Waters - Got My Mojo Working
TTITLE26=Bobby Womack - It's All Over Now
EXTD=
EXTT0=
EXTT1=
EXTT2=
EXTT3=
EXTT4=
EXTT5=
EXTT6=
EXTT7=
EXTT8=
EXTT9=
EXTT10=
EXTT11=
EXTT12=
EXTT13=
EXTT14=
EXTT15=
EXTT16=
EXTT17=
EXTT18=
EXTT19=
EXTT20=
EXTT21=
EXTT22=
EXTT23=
EXTT24=
EXTT25=
EXTT26=
PLAYORDER=
